PathFileType	4	(X/Y/Z)	Walk3.trc
DataRate	CameraRate	NumFrames	NumMarkers	Units	OrigDataRate	OrigDataStartFrame	OrigNumFrames
200.000000	200.000000	4	56	mm	200.000000	738	821
Frame#	Times		LWRR		RLFC		RBHD		RTH3		C7		RMFC		RToe		LElbow		RTB2		RMT1		RMT5		RTB3		LMT5		LWRU		LUA1		LCAR		RCAL		LACR1		RMMAL		RFA1		LASI		LLFC		LTH3		LTB2		LPSI		LCAL		LMMAL		LToe		RPSI		RLMAL		LLMAL		RUA1		LTH2		RFHD		RWRU		RBack		LBHD		LTH4		LMFC		LTB1		RCAR		LTH1		LTB3		RTH2		LTB4		LMT1		RElbow		RTH1		RTH4		RTB4		LFHD		RASI		RACR1		RWRR		T10		RTB1
			X1	Y1	Z1	X2	Y2	Z2	X3	Y3	Z3	X4	Y4	Z4	X5	Y5	Z5	X6	Y6	Z6	X7	Y7	Z7	X8	Y8	Z8	X9	Y9	Z9	X10	Y10	Z10	X11	Y11	Z11	X12	Y12	Z12	X13	Y13	Z13	X14	Y14	Z14	X15	Y15	Z15	X16	Y16	Z16	X17	Y17	Z17	X18	Y18	Z18	X19	Y19	Z19	X20	Y20	Z20	X21	Y21	Z21	X22	Y22	Z22	X23	Y23	Z23	X24	Y24	Z24	X25	Y25	Z25	X26	Y26	Z26	X27	Y27	Z27	X28	Y28	Z28	X29	Y29	Z29	X30	Y30	Z30	X31	Y31	Z31	X32	Y32	Z32	X33	Y33	Z33	X34	Y34	Z34	X35	Y35	Z35	X36	Y36	Z36	X37	Y37	Z37	X38	Y38	Z38	X39	Y39	Z39	X40	Y40	Z40	X41	Y41	Z41	X42	Y42	Z42	X43	Y43	Z43	X44	Y44	Z44	X45	Y45	Z45	X46	Y46	Z46	X47	Y47	Z47	X48	Y48	Z48	X49	Y49	Z49	X50	Y50	Z50	X51	Y51	Z51	X52	Y52	Z52	X53	Y53	Z53	X54	Y54	Z54	X55	Y55	Z55	X56	Y56	Z56

738	3.69	370.18	808.18	-280.98	459.94	490.49	137.66	475.68	1594.2	-75.416	466.67	537.3	142.06	452.66	1465.4	-2.2291	425.66	464.48	14.535	295.88	22.389	98.303	385.35	1089.4	-274.54	338.83	289.39	131.19	250.08	32.265	59.5	213.06	43.045	133.21	278.92	223.07	56.887	776.88	27.805	-112.03	435.8	771.9	-274.09	460.89	1209.9	-245.07	362.4	950.3	-282.1	90.71	155.87	49.191	535.28	1400.3	-176.3	178.94	141.13	32.763	520.59	921.58	295.96	555.76	1016.4	-148.79	605.23	519.58	-125.4	602.53	580.83	-132.63	670.94	310.19	-111.4	360.48	1030.1	-39.859	598.81	32.253	-43.983	682.4	72.73	-12.348	850.06	63.901	-52.4	353.19	1031.9	29.357	152.63	155.12	110.33	660.57	60.788	-93.633	550.09	1237.3	238.43	629.81	691.74	-105.06	650.89	1640.8	-46.988	618.97	836.15	244.19	446.14	1360.4	156.19	478.89	1588.5	61.738	578.85	670.93	-153.7	586.4	490.77	1.2264	669.37	403.29	-40.233	614.16	788.73	291.76	553.83	759.21	-170.06	681.97	218.24	-40.947	533.44	633.84	118.34	675	310.7	-39.582	812.83	34.496	-36.725	481.33	1078.8	292.53	470.45	725.88	172.19	472.26	630.39	159.93	344.12	283.17	55.2	652.17	1639.7	28.195	547.02	976.99	150.33	575.08	1415.4	145.7	544.24	802.71	264.14	376.02	1211.6	7.3138	415.39	349.7	57.29
739	3.695	378.36	808.03	-281.85	470.91	490.28	137.98	480.99	1594.6	-76.361	477.18	537.04	142.22	457.99	1465.9	-3.1706	436.58	464.14	14.52	297.4	23.119	98.434	392.21	1089.3	-275.35	347.31	291.51	131.76	252.15	33.69	59.578	216.73	46.167	133.18	286.31	225.89	57.689	777.15	27.082	-112.79	444.18	772.06	-275.05	467.33	1210	-245.8	369.9	950.12	-282.91	97.133	162.71	50.367	540.91	1400.9	-177.1	184.97	145.61	33.702	524.45	922.15	295.09	561.33	1017.2	-149.48	610.22	520	-126.15	608.43	581.9	-133.04	673.82	309.83	-112.08	365.84	1030.4	-40.409	599.04	32.47	-44.106	682.91	72.59	-12.529	851.25	62.479	-52.851	358.53	1032	28.837	159.06	160.15	111.34	660.93	60.596	-93.788	555.18	1237.9	237.41	635.19	692.93	-105.25	656.19	1641.2	-47.947	622.36	836.09	243.49	451.43	1361	155.35	484.19	1589	60.795	584.53	671.93	-154.16	591.7	491.6	0.5519	673.44	403.13	-41.136	617.18	788.69	291.08	559.37	760.11	-170.76	684.03	217.95	-41.431	542.56	634.34	117.74	678.05	310.48	-40.266	813.35	33.872	-37.005	485.94	1079.5	291.52	478.74	725.85	171.54	481.63	630.29	159.7	352.45	284.91	55.83	657.47	1640.1	27.246	552.61	976.98	149.15	580.38	1415.8	144.7	547.39	803.09	263.31	381.22	1212	6.4539	424.8	350.32	57.777
740	3.7	386.63	807.88	-282.72	481.93	490.14	138.29	486.26	1594.9	-77.282	487.74	536.84	142.39	463.25	1466.4	-4.0965	447.64	463.92	14.46	299.51	24.05	98.587	399.07	1089.2	-276.18	356.04	293.61	132.27	254.74	35.358	59.673	220.92	49.436	133.23	293.97	228.72	58.435	777.42	26.457	-113.49	452.66	772.24	-276.01	473.77	1210.2	-246.54	377.44	949.92	-283.73	103.88	169.34	51.563	546.51	1401.4	-177.87	191.31	150.04	34.598	528.27	922.71	294.23	566.83	1018	-150.18	615.05	520.35	-126.88	614.1	582.87	-133.51	676.66	309.46	-112.72	371.15	1030.7	-40.939	599.26	32.663	-44.217	683.36	72.46	-12.658	852.44	61.104	-53.262	363.84	1032	28.324	165.83	165.08	112.34	661.26	60.43	-93.908	560.21	1238.4	236.41	640.56	693.97	-105.63	661.45	1641.5	-48.882	625.73	836.06	242.76	456.66	1361.5	154.52	489.45	1589.4	59.876	590.08	672.85	-154.68	597.03	492.43	-0.060997	677.47	402.95	-41.979	620.2	788.68	290.37	564.84	760.96	-171.48	686.04	217.67	-41.859	551.75	634.88	117.19	681.04	310.25	-40.894	813.87	33.354	-37.206	490.49	1080.2	290.54	487.1	725.86	170.91	491.06	630.23	159.49	360.99	286.7	56.398	662.74	1640.5	26.319	558.09	977.02	148.05	585.61	1416.2	143.72	550.53	803.48	262.47	386.38	1212.5	5.5988	434.38	351.01	58.21
741	3.705	394.97	807.72	-283.58	492.96	490.07	138.6	491.49	1595.3	-78.176	498.3	536.72	142.56	468.45	1466.9	-5.006	458.79	463.83	14.35	302.27	25.203	98.76	405.94	1089.1	-277.02	365	295.67	132.7	257.92	37.266	59.794	225.65	52.823	133.34	301.86	231.54	59.113	777.69	25.92	-114.15	461.23	772.43	-276.95	480.21	1210.3	-247.29	385.02	949.71	-284.55	110.93	175.72	52.763	552.06	1401.9	-178.63	197.96	154.4	35.444	532.07	923.26	293.39	572.25	1018.7	-150.9	619.72	520.61	-127.57	619.51	583.69	-134.04	679.49	309.09	-113.29	376.43	1030.9	-41.456	599.44	32.835	-44.314	683.77	72.338	-12.733	853.64	59.763	-53.63	369.12	1032.1	27.815	172.96	169.9	113.31	661.57	60.287	-93.99	565.17	1238.9	235.44	645.88	694.83	-106.2	666.68	1641.8	-49.792	629.09	836.06	242.01	461.83	1362	153.7	494.67	1589.8	58.982	595.44	673.65	-155.25	602.35	493.26	-0.5937	681.42	402.75	-42.738	623.23	788.68	289.65	570.23	761.72	-172.23	687.99	217.38	-42.221	560.97	635.47	116.69	683.98	310.01	-41.449	814.36	32.926	-37.326	494.97	1080.9	289.59	495.5	725.92	170.28	500.5	630.23	159.3	369.71	288.52	56.892	667.97	1640.9	25.415	563.46	977.11	147.01	590.77	1416.7	142.77	553.66	803.89	261.64	391.52	1212.8	4.7516	444.08	351.77	58.576
